<svg version="1.1" id="Layer_1" xmlns="http://www.w3.org/2000/svg" xmlns:xlink="http://www.w3.org/1999/xlink" x="0px" y="0px"
	 width="100%" viewBox="0 0 1024 1024" enable-background="new 0 0 1024 1024" xml:space="preserve">
<path fill="#000000" opacity="1.000000" stroke="none" 
	d="
M238.334076,713.416626 
	C246.480087,706.214294 252.043579,697.307556 258.706116,689.323486 
	C267.476807,678.813049 274.412048,666.977051 283.240082,656.476685 
	C290.559540,647.770752 296.658295,638.044434 303.398468,628.843872 
	C310.232788,619.514893 317.261322,610.327942 324.070587,600.980896 
	C329.074951,594.111450 334.107300,587.239197 338.653137,580.067749 
	C341.257751,575.958801 345.030640,573.008301 347.827881,569.063904 
	C354.628387,559.474609 361.990753,550.307678 368.379761,540.385437 
	C373.379272,532.621033 379.358643,525.487488 384.904022,518.074707 
	C389.427551,512.027832 393.909027,505.948944 398.487518,499.944031 
	C406.282745,489.720245 414.291656,479.655243 421.905518,469.299072 
	C425.640381,464.218994 429.304443,459.097198 433.153931,454.094330 
	C437.740570,448.133453 441.661987,441.617035 447.347626,436.594421 
	C453.379150,431.266235 456.978394,424.067169 462.122681,418.029602 
	C471.331268,407.222046 479.672241,395.670624 488.277405,384.355286 
	C493.067444,378.056549 497.268738,371.266754 502.451324,365.322418 
	C507.441925,359.598358 511.489349,353.198395 516.427368,347.426483 
	C520.987488,342.096344 525.245117,336.400269 529.505737,330.769531 
	C534.293945,324.441589 539.988403,318.823303 544.591736,312.443054 
	C552.371521,301.660278 561.960327,292.319397 568.775330,280.738251 
	C572.291748,274.762604 576.650269,269.296631 578.761902,262.566711 
	C583.532532,247.362823 583.521851,231.973495 581.313171,216.300568 
	C579.975830,206.810242 576.361145,198.139893 573.470398,189.205078 
	C572.308105,185.612564 568.861938,183.740799 565.254028,182.651489 
	C545.416931,176.662155 525.331604,171.638641 505.049255,167.420807 
	C487.218140,163.712708 469.391907,159.954605 451.478790,156.682358 
	C445.630096,155.613968 439.686523,155.045837 433.913605,153.485748 
	C425.887573,151.316742 423.780273,146.122742 430.027618,139.591858 
	C435.470032,133.902374 439.730438,127.096085 444.671661,120.909897 
	C451.453247,112.419685 459.409912,105.364525 468.640198,99.412590 
	C482.455475,90.504135 497.681366,88.503288 513.400452,88.753410 
	C530.726624,89.029121 547.980103,87.135666 565.299255,87.598618 
	C572.954590,87.803261 577.426758,83.038231 580.661377,76.854156 
	C584.543884,69.431633 590.118774,63.820293 597.290894,59.475185 
	C604.037598,55.387794 610.013123,50.029366 617.745544,47.595818 
	C619.520447,47.037212 621.236633,46.678444 623.087769,46.633904 
	C650.052368,45.985153 677.015625,45.390560 703.993164,45.623829 
	C717.305481,45.738937 730.575317,47.315964 743.903015,46.658562 
	C745.632996,46.573223 747.301025,46.938652 748.656982,47.910545 
	C760.404175,56.330311 773.527710,63.036770 782.487488,74.946030 
	C783.174255,75.858849 784.330139,76.633507 784.565918,77.637260 
	C786.691711,86.690071 793.385742,93.466759 796.604553,101.905594 
	C800.768372,112.821716 804.327759,123.966728 808.294861,134.959991 
	C811.928711,145.029602 815.112732,155.335114 819.687439,164.970490 
	C824.071167,174.203735 826.716309,183.958374 829.936951,193.507751 
	C833.647095,204.508514 838.658813,215.018585 841.964539,226.116104 
	C847.502625,244.707504 854.802917,262.679443 860.905029,281.075653 
	C865.745728,295.668793 871.152588,310.125671 876.250610,324.663696 
	C882.060791,341.232544 888.450867,357.625793 893.529663,374.415833 
	C899.093262,392.808624 897.664490,411.834747 896.636902,430.771667 
	C895.302979,455.352264 886.081726,477.811859 878.658081,500.782074 
	C874.373596,514.039124 868.599365,526.681091 863.263367,539.516724 
	C854.613464,560.324097 845.804626,581.066345 836.159180,601.419250 
	C831.375610,611.512939 825.034668,620.849304 818.212769,629.750000 
	C816.421509,632.087280 814.094727,633.991272 811.614502,635.770142 
	C795.950073,647.004395 780.324524,658.291016 764.842102,669.782837 
	C752.152161,679.202026 739.152100,688.255371 726.106201,697.221008 
	C714.221069,705.388977 702.512146,713.914917 691.089233,722.818298 
	C682.218201,729.732788 673.673279,737.187866 663.784241,742.903687 
	C656.324646,747.215149 649.659241,752.926453 642.768494,758.182617 
	C640.334351,760.039490 639.274170,762.574463 639.245178,765.949463 
	C639.130493,779.285400 639.226440,792.498169 644.250732,805.208374 
	C647.187073,812.636353 652.067078,818.872559 656.462891,825.291260 
	C659.233704,829.337341 661.948425,833.493713 664.810120,837.513245 
	C672.855896,848.814819 680.910217,860.111816 688.811768,871.514099 
	C698.709045,885.796082 708.171936,900.388428 718.367798,914.451294 
	C725.541443,924.345764 732.474060,934.390625 739.368286,944.471619 
	C740.864014,946.658813 742.831604,947.769348 745.658447,947.679749 
	C765.807129,947.040771 785.920471,949.550598 806.061279,948.590454 
	C819.182800,947.964905 828.501526,958.190247 831.232300,968.612427 
	C835.157959,983.595093 834.799500,981.326111 821.250366,981.331177 
	C692.598206,981.379395 563.946045,981.367981 435.293854,981.372070 
	C427.663818,981.372314 427.659424,981.365723 427.651917,973.782471 
	C427.645996,967.783142 427.835999,961.776184 427.587891,955.787231 
	C427.427155,951.907349 428.717865,950.507751 432.700531,950.579224 
	C444.362091,950.788696 456.029877,950.650085 467.695221,950.649963 
	C506.690826,950.649475 545.686462,950.658813 584.682068,950.622742 
	C586.564148,950.621033 588.652771,951.229126 590.571289,949.481750 
	C585.109680,941.048462 579.692261,932.777710 574.371643,924.445068 
	C567.075806,913.019226 558.847473,902.240051 551.483276,890.845703 
	C540.922180,874.504700 529.748169,858.553650 518.547485,842.639099 
	C516.956848,840.378967 515.171814,838.225891 513.690796,835.840637 
	C511.840454,832.860413 509.327820,831.267212 505.483917,831.282898 
	C495.021881,831.325500 484.736969,829.152161 474.340759,828.259094 
	C471.856812,828.045654 469.485321,822.676941 470.512024,819.552551 
	C475.181641,805.342224 480.650909,791.439453 486.515472,777.677917 
	C493.086060,762.259583 501.120636,747.462219 506.195068,731.407959 
	C506.546173,730.297180 507.045563,729.212708 505.873413,727.447144 
	C501.988586,728.292969 499.164337,731.499573 495.857086,733.521851 
	C488.820862,737.824524 481.774261,742.271545 475.444977,747.519409 
	C470.082550,751.965698 464.193695,755.633301 458.823212,760.056824 
	C452.226959,765.489929 444.985443,770.144348 437.981110,775.076172 
	C430.289978,780.491516 422.676697,785.988831 415.340698,791.900696 
	C408.390320,797.501770 400.440247,801.703979 393.714417,807.759705 
	C386.667664,814.104309 378.786835,819.524780 371.248810,825.320923 
	C362.987518,831.673157 354.340607,837.582153 346.526520,844.441650 
	C338.558990,851.435730 329.857635,857.460449 321.752075,864.275146 
	C312.203857,872.302673 302.491913,880.214172 292.626953,887.900940 
	C283.547546,894.975708 274.503235,902.093201 265.399231,909.138184 
	C253.540497,918.314819 242.457336,928.513000 230.419037,937.432983 
	C218.015839,946.623474 205.838928,955.985046 194.474060,966.458679 
	C188.340393,972.111328 181.006119,975.879028 172.334320,976.310303 
	C159.404617,976.953308 146.484283,977.808350 133.550003,978.323608 
	C128.252548,978.534607 127.809418,977.691772 130.517075,973.026367 
	C137.835052,960.417053 146.489426,948.694153 154.889557,936.804626 
	C157.649185,932.898621 160.404587,928.983826 162.997910,924.967102 
	C172.104507,910.862549 180.983734,896.608704 190.248032,882.609253 
	C198.638245,869.930786 208.165237,857.945557 215.799438,844.843750 
	C222.321899,833.649902 229.842850,823.159424 236.632126,812.173950 
	C240.782089,805.459045 246.542343,799.749939 250.819443,793.100220 
	C255.609100,785.653687 261.654541,779.388733 267.528290,772.915710 
	C268.323730,772.039124 268.873474,771.022583 268.877075,769.798523 
	C267.733154,768.039917 266.328369,768.589111 264.921539,769.259705 
	C259.246094,771.965210 253.556046,774.594360 248.189774,777.950378 
	C238.543457,783.983032 228.590317,789.525024 218.943665,795.557190 
	C209.934998,801.190430 200.762680,806.511902 191.516617,811.740906 
	C186.212128,814.740723 180.428070,816.131653 174.837372,818.165527 
	C172.402344,819.051514 170.292496,818.057983 170.733810,815.035522 
	C172.067062,805.903992 172.556564,796.538513 179.437180,789.137512 
	C182.572037,785.765564 184.963104,781.690613 187.606705,777.875732 
	C194.414215,768.052124 203.460434,760.112183 210.421844,750.378113 
	C217.223312,740.867676 224.727112,731.860596 231.881424,722.600708 
	C234.096039,719.734314 236.837204,717.224243 238.334076,713.416626 
M720.509949,486.979706 
	C716.365967,495.287720 712.130554,503.551636 708.097778,511.913269 
	C700.690491,527.271729 693.657837,542.816223 685.988586,558.041199 
	C679.184082,571.549377 674.192810,585.772339 668.466614,599.706909 
	C664.541260,609.259155 663.104248,619.553711 651.134521,624.683655 
	C642.374451,628.437927 634.416016,634.984680 626.250793,640.520813 
	C616.390808,647.206238 606.808350,654.261841 597.582336,661.762817 
	C588.223816,669.371521 578.606750,676.560303 568.359436,682.920227 
	C563.299194,686.060913 558.061768,689.020447 553.457458,692.745361 
	C551.307495,694.484802 548.385803,695.626770 547.326355,698.922363 
	C542.403809,714.234619 537.234558,729.467896 532.110352,744.714844 
	C527.619202,758.077881 523.852783,771.694214 518.157288,784.637878 
	C515.706482,790.207458 513.687195,795.908508 512.706360,802.159607 
	C519.189819,803.550842 525.019287,801.168823 530.956421,801.335266 
	C532.000427,801.364502 533.362305,800.120422 534.107056,799.115723 
	C538.725159,792.885803 545.298645,788.869690 551.076111,783.971313 
	C562.889648,773.955444 575.974243,765.581177 588.622925,756.760864 
	C604.369080,745.780579 619.721558,734.227661 635.702820,723.580505 
	C640.372437,720.469543 645.099243,717.417419 649.552185,714.014282 
	C656.871216,708.420898 663.901733,702.449951 671.222290,696.858643 
	C675.696289,693.441650 680.962463,690.947571 685.034607,687.142090 
	C693.946045,678.814270 704.770020,673.204834 714.227722,665.625854 
	C723.989380,657.803162 735.116943,651.761353 745.183289,644.171082 
	C756.231995,635.839905 768.031921,628.603394 778.657410,619.548462 
	C786.829956,612.583862 793.648987,604.824585 799.372498,595.969177 
	C803.056641,590.268921 806.363037,584.305237 809.544006,578.303467 
	C814.433838,569.077332 819.570129,559.932556 823.698547,550.363525 
	C830.072388,535.589966 836.313660,520.750732 842.286133,505.795227 
	C846.838013,494.397095 851.925964,483.173035 855.462646,471.437347 
	C860.145691,455.898010 863.614197,440.016907 865.572632,423.867706 
	C866.851807,413.320129 868.104309,402.673492 865.433594,392.209351 
	C863.432617,384.369141 860.578979,376.755524 857.954651,369.081451 
	C850.451050,347.139282 842.515930,325.359711 834.453918,303.623810 
	C831.053772,294.456757 826.816406,285.574493 823.859070,276.276703 
	C821.207764,267.941101 819.176147,259.236084 815.975952,251.237640 
	C810.828674,238.373184 806.919739,225.114044 801.952332,212.213058 
	C796.838501,198.931488 792.972046,185.200211 788.016479,171.838669 
	C782.369690,156.613342 776.157532,141.603424 771.352051,126.044785 
	C767.956909,115.052261 763.497498,104.398201 756.601013,94.900208 
	C750.758545,86.853790 743.019592,81.100609 733.609192,79.646652 
	C715.497009,76.848228 697.048706,78.072906 678.788818,78.126785 
	C663.029053,78.173286 647.206787,78.005569 631.396118,79.008705 
	C622.872009,79.549538 616.674133,82.831467 611.756775,88.634529 
	C606.415222,94.938049 601.099365,101.381607 597.927368,109.367676 
	C596.577454,112.766319 595.347473,117.393768 589.647644,117.434235 
	C580.194824,117.501320 570.766907,118.897148 561.345825,119.169884 
	C543.236511,119.694153 525.146545,120.479965 507.050507,121.283432 
	C497.543732,121.705528 488.623810,123.038879 481.757843,130.573975 
	C482.741699,132.157410 484.454224,132.372147 486.283386,132.732376 
	C496.663849,134.776688 507.260040,135.553726 517.509766,138.428726 
	C524.833069,140.482880 532.281433,142.183121 539.761719,143.566757 
	C555.395020,146.458527 571.013489,149.427261 586.285034,153.862640 
	C590.648682,155.129990 595.468079,156.550140 597.928772,160.993652 
	C601.792847,167.971298 605.236145,175.205902 607.296753,182.928558 
	C609.856750,192.522934 611.922058,202.173126 612.784546,212.182602 
	C614.070251,227.102554 614.507202,241.881882 612.776611,256.797363 
	C612.103210,262.601257 610.579346,268.337006 610.157043,274.686829 
	C625.576538,274.527954 640.366211,274.496826 655.114990,275.663208 
	C667.166992,276.616333 679.260132,277.053802 691.260010,278.668488 
	C700.572815,279.921692 709.693970,282.648865 717.592041,287.223206 
	C727.361389,292.881378 736.526001,299.894806 744.381653,308.222748 
	C753.559753,317.952637 760.152161,329.656403 762.896118,342.418091 
	C766.097656,357.307495 767.389832,372.514740 764.714783,388.138123 
	C762.259888,402.475861 759.443481,416.317657 752.888489,429.417389 
	C747.066589,441.052063 740.510803,452.251648 734.136353,463.563507 
	C729.824219,471.215729 725.319031,478.759094 720.509949,486.979706 
M269.625275,733.803345 
	C271.214752,733.717224 272.567444,733.077515 273.432251,731.758057 
	C277.676392,725.282410 284.970947,722.445801 290.742981,717.924072 
	C302.954132,708.358154 315.937317,699.723450 328.475098,690.522034 
	C331.415985,688.363708 333.702148,685.500427 337.059021,683.765564 
	C348.117493,678.050293 358.458130,671.042542 368.501740,663.808533 
	C382.474274,653.744873 396.436371,643.592773 410.646393,633.936035 
	C424.285828,624.667053 437.971558,615.388733 451.784790,606.337280 
	C467.134674,596.278992 481.941223,585.388184 497.342255,575.412415 
	C508.430908,568.229919 519.061646,560.366150 530.275452,553.416260 
	C539.708130,547.570190 548.063721,540.272156 557.428345,534.377075 
	C566.656799,528.567688 576.394836,523.392029 584.916443,516.678223 
	C596.844055,507.280884 609.872864,499.535980 622.199951,490.774078 
	C633.731812,482.577393 645.680542,474.789185 657.174133,466.513885 
	C669.789368,457.431030 682.768250,448.886505 695.357544,439.778442 
	C704.049683,433.489868 712.959717,427.474152 719.830505,419.072937 
	C723.792358,414.228516 724.947205,408.054138 727.329163,402.454010 
	C737.608521,378.287109 736.833618,355.063049 722.005127,332.812958 
	C714.908203,322.164032 704.853394,315.453156 693.041931,311.530609 
	C683.413269,308.332916 673.087280,307.905945 663.091309,307.598877 
	C639.985901,306.889069 616.844238,307.382751 593.717407,307.319824 
	C591.352966,307.313416 589.736816,307.881683 588.380493,310.051331 
	C580.709961,322.321350 571.744263,333.701233 562.760437,344.977448 
	C551.348022,359.302002 541.183960,374.545288 529.529907,388.686127 
	C523.244263,396.313049 516.882690,403.955048 511.093079,411.932739 
	C499.631256,427.726440 487.763763,443.200745 475.625824,458.455994 
	C468.937988,466.861389 462.598541,475.512024 456.008942,483.975830 
	C447.110840,495.404633 438.414886,506.991577 429.047791,518.072632 
	C423.432312,524.715637 418.650513,532.248291 412.918274,538.691528 
	C403.570496,549.198730 396.765869,561.510742 387.259064,571.890747 
	C378.513794,581.439331 371.020325,592.142822 363.089417,602.425598 
	C358.510437,608.362366 354.181396,614.491394 349.695679,620.500977 
	C345.529480,626.082458 341.317444,631.629761 337.102783,637.174866 
	C329.530365,647.137634 321.353607,656.702576 314.511810,667.143066 
	C306.515961,679.344604 297.821106,691.015930 288.477264,702.098450 
	C281.866547,709.939392 276.522919,718.631042 270.132996,726.590820 
	C268.028595,729.212219 264.555695,731.833984 264.696655,736.036865 
	C267.185944,737.198242 267.649628,734.794922 269.625275,733.803345 
M563.000305,569.525146 
	C549.329407,579.123047 535.462769,588.456482 522.041443,598.391541 
	C507.972168,608.806274 493.193420,618.159546 478.859528,628.172729 
	C470.241180,634.193237 461.084381,639.509521 452.565186,645.602966 
	C439.011444,655.297424 425.548737,665.112366 411.694977,674.381104 
	C403.330139,679.977539 394.588379,685.099365 386.717163,691.321533 
	C377.780914,698.385498 368.190094,704.461731 358.939209,711.028259 
	C349.401794,717.798157 338.963959,723.291504 329.327759,729.934692 
	C325.988251,732.236938 322.830841,735.215332 321.060059,739.517578 
	C317.774170,747.501160 313.128571,754.969299 308.511536,762.135620 
	C301.651581,772.783203 295.235657,783.757263 287.644073,793.983215 
	C279.079346,805.519897 271.134186,817.515625 263.379639,829.657654 
	C250.910477,849.181824 238.572128,868.772034 226.760818,888.698242 
	C224.557373,892.415527 222.419830,896.189819 219.291885,899.259705 
	C218.025848,900.502258 216.846146,901.795837 216.886459,903.660339 
	C220.542755,903.936096 223.280655,901.992981 225.483917,899.881958 
	C233.733643,891.977966 243.079865,885.475281 252.110901,878.585632 
	C259.224487,873.158813 265.696533,866.979004 272.744904,861.519531 
	C283.317505,853.330261 294.386475,845.783264 304.989990,837.632263 
	C318.097870,827.556030 330.705261,816.818054 343.969788,806.959167 
	C358.567230,796.109619 372.380219,784.264038 387.326660,773.843140 
	C398.542816,766.023132 410.146729,758.705627 420.540588,749.683228 
	C426.485718,744.522400 433.505157,740.596130 439.428741,735.414185 
	C456.159302,720.778320 474.470367,708.233154 492.208740,694.942078 
	C508.103821,683.032166 525.317749,673.012146 541.447449,661.393311 
	C554.601196,651.918213 568.360291,643.288330 581.711487,634.081360 
	C597.115906,623.458435 612.141724,612.269348 627.785522,602.018250 
	C635.004028,597.288025 640.225098,591.891541 641.671509,583.272583 
	C641.753540,582.783386 641.860901,582.283936 642.052063,581.829468 
	C651.299744,559.852417 660.120911,537.727112 672.093201,516.949219 
	C678.185852,506.375580 684.568848,495.820251 689.362732,484.237091 
	C686.411804,484.619934 683.937256,485.196228 681.821411,487.034027 
	C675.830933,492.237335 669.566589,497.067413 662.456482,500.701385 
	C660.544861,501.678406 658.529297,502.592255 656.886780,503.933502 
	C642.574036,515.620728 626.561523,524.878357 611.634399,535.688232 
	C604.950745,540.528503 597.761353,544.664734 590.984192,549.382935 
	C581.751221,555.810730 572.693054,562.489502 563.000305,569.525146 
M584.242065,797.627319 
	C581.850220,799.614197 579.995850,802.054260 577.145447,803.718140 
	C568.151611,808.968079 560.303894,815.822998 552.573181,822.764099 
	C550.161011,824.929810 549.903442,827.020813 551.959412,830.109436 
	C556.323547,836.665710 560.615295,843.313904 565.003296,849.831238 
	C572.071289,860.329041 578.001160,871.540161 585.474365,881.752502 
	C590.930664,889.208801 595.067749,897.458862 599.929993,905.270203 
	C607.855042,918.002014 616.233887,930.475891 623.565186,943.539062 
	C626.008972,947.893555 628.429749,948.772217 632.797424,948.736694 
	C654.452332,948.560364 676.109558,948.675781 697.765747,948.614685 
	C699.461487,948.609924 701.416626,949.380676 702.987793,947.630676 
	C699.067444,941.775574 695.339478,935.845276 691.249573,930.176147 
	C683.195007,919.011597 675.216919,907.773193 667.404663,896.460205 
	C656.281555,880.352844 644.944031,864.402771 633.691650,848.388977 
	C624.074463,834.702148 615.195679,820.617004 609.510620,804.684814 
	C607.533997,799.145447 608.163452,792.884827 604.893372,787.906555 
	C596.946411,788.896545 591.906250,795.145996 584.242065,797.627319 
z"/>
</svg>