<svg version="1.1" id="Layer_1" xmlns="http://www.w3.org/2000/svg" xmlns:xlink="http://www.w3.org/1999/xlink" x="0px" y="0px"
	 width="100%" viewBox="0 0 1024 1024" enable-background="new 0 0 1024 1024" xml:space="preserve">
<path fill="#000000" opacity="1.000000" stroke="none" 
	d="
M578.000000,1025.000000 
	C385.333344,1025.000000 193.166672,1025.000000 1.000000,1025.000000 
	C1.000000,683.666687 1.000000,342.333344 1.000000,1.000000 
	C342.333344,1.000000 683.666687,1.000000 1025.000000,1.000000 
	C1025.000000,342.333344 1025.000000,683.666687 1025.000000,1025.000000 
	C876.166687,1025.000000 727.333313,1025.000000 578.000000,1025.000000 
M576.300537,84.931572 
	C571.067932,86.526535 565.883362,89.290276 560.594177,89.507446 
	C541.121155,90.307022 521.612549,90.215187 502.118896,90.549500 
	C483.591125,90.867241 468.353271,99.020859 455.121490,111.210304 
	C449.592468,116.303802 444.708496,122.166580 439.982544,128.042572 
	C435.607788,133.481964 431.943573,139.486893 427.751923,145.082047 
	C425.667999,147.863724 427.881409,149.577789 429.291290,150.700134 
	C430.833984,151.928223 433.254120,152.194427 435.347504,152.567551 
	C448.670563,154.942291 462.064484,156.954681 475.327637,159.620804 
	C490.315796,162.633682 505.242218,165.996979 520.101196,169.597015 
	C535.531250,173.335419 550.927124,177.272766 566.150146,181.759933 
	C569.267700,182.678864 572.446777,185.942261 574.056396,188.949753 
	C579.109375,198.390869 581.005310,208.811874 583.020569,219.331223 
	C585.391846,231.709000 584.593933,243.809830 582.464172,255.797775 
	C580.375793,267.552338 573.458435,277.445618 566.417358,286.821289 
	C558.847168,296.901398 550.408691,306.328217 542.384277,316.069153 
	C539.262085,319.859253 536.185913,323.689728 533.177917,327.570892 
	C528.259033,333.917603 523.431152,340.334808 518.532166,346.697113 
	C510.437927,357.209290 502.282104,367.674164 494.219238,378.210236 
	C487.359589,387.174042 480.674194,396.272034 473.760376,405.193359 
	C468.848755,411.531097 463.651581,417.646698 458.641998,423.909576 
	C450.146240,434.530823 441.617981,445.127747 433.256866,455.854492 
	C427.328094,463.460724 421.637268,471.252930 415.867340,478.982330 
	C409.893036,486.985535 403.964508,495.022858 397.992004,503.027374 
	C391.923523,511.160400 385.776764,519.235413 379.755768,527.403320 
	C374.613190,534.379639 369.662262,541.497253 364.513153,548.468689 
	C359.072601,555.834595 353.450653,563.066467 347.994476,570.421082 
	C342.043457,578.442566 336.189545,586.536133 330.297180,594.601135 
	C321.900635,606.093689 313.524628,617.601318 305.107147,629.078552 
	C299.489166,636.738770 293.840363,644.376770 288.156403,651.988098 
	C283.662476,658.005920 279.120667,663.988403 274.552979,669.950500 
	C266.279327,680.749939 257.994202,691.540771 249.665634,702.297852 
	C245.957031,707.087769 242.094452,711.758301 238.367081,716.534058 
	C231.817749,724.925476 225.441666,733.455261 218.761871,741.740723 
	C212.798172,749.138000 206.330841,756.131897 200.432861,763.578735 
	C193.118912,772.813293 186.198181,782.358337 179.040298,791.717773 
	C173.296753,799.227844 173.415268,808.336609 171.007767,817.580933 
	C174.944244,816.486877 178.151062,816.181091 180.764297,814.773254 
	C196.493912,806.299866 212.150635,797.685547 227.705658,788.895325 
	C239.295746,782.345581 250.600327,775.287292 262.243561,768.837341 
	C265.330505,767.127258 269.197876,766.826050 272.706909,765.877991 
	C272.892120,766.377258 273.077362,766.876465 273.262604,767.375671 
	C268.162720,773.541809 262.941742,779.612549 257.993073,785.897644 
	C251.515350,794.124695 244.869492,802.260742 238.992920,810.909546 
	C231.343094,822.168030 224.515549,833.981262 217.086227,845.394348 
	C204.661789,864.480957 192.048004,883.444458 179.500198,902.450684 
	C172.183334,913.533691 164.973068,924.690186 157.474503,935.649231 
	C148.102432,949.346375 138.483322,962.874573 128.361420,977.347107 
	C143.232254,976.502808 157.102966,975.749329 170.967804,974.899597 
	C173.777603,974.727417 176.614807,974.403137 179.348251,973.760986 
	C181.836960,973.176331 184.616302,972.593201 186.541428,971.083496 
	C191.697342,967.040039 196.364166,962.380188 201.409729,958.187073 
	C207.955551,952.747131 214.656876,947.492920 221.332718,942.211060 
	C230.832275,934.695129 240.375275,927.234192 249.888199,919.735168 
	C254.265244,916.284729 258.586487,912.763184 262.983856,909.339111 
	C268.925049,904.712891 274.954559,900.199524 280.873810,895.545654 
	C287.572662,890.278931 294.170746,884.884216 300.850677,879.593201 
	C307.902435,874.007629 315.073975,868.571106 322.058411,862.903442 
	C332.376251,854.530640 342.439728,845.840027 352.861053,837.600403 
	C364.160339,828.666687 375.746246,820.095459 387.206299,811.365112 
	C401.775635,800.265991 416.236389,789.020569 430.941864,778.105042 
	C446.973328,766.205017 463.125763,754.460815 479.429474,742.937439 
	C489.634857,735.724304 500.216614,729.043762 511.375183,721.628784 
	C511.124237,723.748596 511.242249,724.967834 510.822540,725.959473 
	C505.741425,737.965393 500.572998,749.934448 495.443054,761.919739 
	C488.978516,777.023376 482.114532,791.975586 476.275513,807.317688 
	C473.931183,813.477417 469.008514,819.689819 472.732849,827.104919 
	C481.660431,827.800415 490.590637,828.307739 499.473480,829.257935 
	C504.908264,829.839172 510.881714,829.801147 514.517883,834.989441 
	C524.107666,848.672607 533.614624,862.414795 543.035217,876.215088 
	C555.586060,894.601257 568.047852,913.048340 580.497314,931.503357 
	C584.758850,937.820679 588.867737,944.240906 593.654541,951.541687 
	C537.749268,951.541687 483.023926,951.541687 428.330963,951.541687 
	C428.330963,961.679993 428.330963,971.242249 428.330963,980.716553 
	C563.277588,980.716553 697.875000,980.716553 832.813354,980.716553 
	C832.124268,977.347290 831.743835,974.250183 830.845337,971.311462 
	C827.251892,959.557434 821.298523,949.411072 804.846985,949.800842 
	C785.691772,950.254700 766.516418,950.003906 747.353149,949.777466 
	C745.070496,949.750549 741.984680,948.591370 740.671509,946.881531 
	C732.409363,936.123596 724.447937,925.129456 716.571960,914.081604 
	C707.642883,901.556824 698.863464,888.924500 690.100830,876.282227 
	C681.430664,863.773193 672.817810,851.223816 664.265198,838.634216 
	C658.375916,829.964966 652.340454,821.372375 646.943481,812.400696 
	C644.156067,807.767090 642.269348,802.492126 640.627686,797.300842 
	C639.359253,793.289795 638.855896,788.981323 638.459045,784.763062 
	C637.857483,778.368774 636.944031,771.870605 637.552917,765.550476 
	C637.868835,762.271423 640.508911,758.428284 643.239441,756.310242 
	C653.427185,748.408020 664.121399,741.161804 674.559448,733.578491 
	C684.748901,726.175720 694.822998,718.614197 705.010925,711.209290 
	C716.387329,702.940613 727.836609,694.772217 739.251160,686.555969 
	C750.020508,678.804138 760.815552,671.087830 771.544678,663.280701 
	C783.314453,654.716309 794.702454,645.575623 806.882141,637.646606 
	C813.613220,633.264709 819.058899,628.011536 822.744080,621.285400 
	C831.485901,605.330322 840.023438,589.232849 847.838562,572.809875 
	C854.193848,559.454651 859.486938,545.586426 865.049622,531.864075 
	C869.186584,521.658752 873.106018,511.361572 876.927795,501.033325 
	C880.274902,491.988129 883.643127,482.932037 886.464417,473.716187 
	C889.272217,464.544678 892.005554,455.273163 893.667053,445.850739 
	C895.181763,437.260620 894.985901,428.384003 895.947510,419.678253 
	C898.355896,397.874908 894.059265,377.116119 886.624695,356.804260 
	C882.240662,344.826447 877.642212,332.924438 873.440796,320.883453 
	C870.725769,313.102539 868.794067,305.048462 866.084045,297.265594 
	C861.926025,285.324280 857.341492,273.532196 853.046570,261.637543 
	C848.672424,249.523331 844.462646,237.349884 840.118286,225.224854 
	C837.106812,216.819946 833.912354,208.480164 830.938782,200.062180 
	C827.371277,189.962402 824.105774,179.753998 820.427429,169.695816 
	C816.111694,157.894287 811.428528,146.227661 807.023804,134.457962 
	C802.975159,123.639893 799.404907,112.630409 795.000671,101.962601 
	C792.478271,95.852852 788.068970,90.502792 785.713135,84.349731 
	C783.850525,79.484756 782.002380,74.938835 777.994629,71.575493 
	C771.241882,65.908630 764.635193,60.022259 757.504028,54.868919 
	C753.258972,51.801228 748.238831,48.172131 743.378662,47.874481 
	C723.121338,46.633892 702.793884,46.254421 682.489380,46.160572 
	C667.188232,46.089848 651.880554,47.327145 636.579956,47.242039 
	C624.987305,47.177563 614.125793,48.714344 604.595703,55.797436 
	C597.083130,61.380989 588.164795,65.294327 583.545532,74.280022 
	C581.702209,77.865631 579.134399,81.078766 576.300537,84.931572 
z"/>
<path fill="#FBFBFB" opacity="1.000000" stroke="none" 
	d="
M576.598511,84.696518 
	C579.134399,81.078766 581.702209,77.865631 583.545532,74.280022 
	C588.164795,65.294327 597.083130,61.380989 604.595703,55.797436 
	C614.125793,48.714344 624.987305,47.177563 636.579956,47.242039 
	C651.880554,47.327145 667.188232,46.089848 682.489380,46.160572 
	C702.793884,46.254421 723.121338,46.633892 743.378662,47.874481 
	C748.238831,48.172131 753.258972,51.801228 757.504028,54.868919 
	C764.635193,60.022259 771.241882,65.908630 777.994629,71.575493 
	C782.002380,74.938835 783.850525,79.484756 785.713135,84.349731 
	C788.068970,90.502792 792.478271,95.852852 795.000671,101.962601 
	C799.404907,112.630409 802.975159,123.639893 807.023804,134.457962 
	C811.428528,146.227661 816.111694,157.894287 820.427429,169.695816 
	C824.105774,179.753998 827.371277,189.962402 830.938782,200.062180 
	C833.912354,208.480164 837.106812,216.819946 840.118286,225.224854 
	C844.462646,237.349884 848.672424,249.523331 853.046570,261.637543 
	C857.341492,273.532196 861.926025,285.324280 866.084045,297.265594 
	C868.794067,305.048462 870.725769,313.102539 873.440796,320.883453 
	C877.642212,332.924438 882.240662,344.826447 886.624695,356.804260 
	C894.059265,377.116119 898.355896,397.874908 895.947510,419.678253 
	C894.985901,428.384003 895.181763,437.260620 893.667053,445.850739 
	C892.005554,455.273163 889.272217,464.544678 886.464417,473.716187 
	C883.643127,482.932037 880.274902,491.988129 876.927795,501.033325 
	C873.106018,511.361572 869.186584,521.658752 865.049622,531.864075 
	C859.486938,545.586426 854.193848,559.454651 847.838562,572.809875 
	C840.023438,589.232849 831.485901,605.330322 822.744080,621.285400 
	C819.058899,628.011536 813.613220,633.264709 806.882141,637.646606 
	C794.702454,645.575623 783.314453,654.716309 771.544678,663.280701 
	C760.815552,671.087830 750.020508,678.804138 739.251160,686.555969 
	C727.836609,694.772217 716.387329,702.940613 705.010925,711.209290 
	C694.822998,718.614197 684.748901,726.175720 674.559448,733.578491 
	C664.121399,741.161804 653.427185,748.408020 643.239441,756.310242 
	C640.508911,758.428284 637.868835,762.271423 637.552917,765.550476 
	C636.944031,771.870605 637.857483,778.368774 638.459045,784.763062 
	C638.855896,788.981323 639.359253,793.289795 640.627686,797.300842 
	C642.269348,802.492126 644.156067,807.767090 646.943481,812.400696 
	C652.340454,821.372375 658.375916,829.964966 664.265198,838.634216 
	C672.817810,851.223816 681.430664,863.773193 690.100830,876.282227 
	C698.863464,888.924500 707.642883,901.556824 716.571960,914.081604 
	C724.447937,925.129456 732.409363,936.123596 740.671509,946.881531 
	C741.984680,948.591370 745.070496,949.750549 747.353149,949.777466 
	C766.516418,950.003906 785.691772,950.254700 804.846985,949.800842 
	C821.298523,949.411072 827.251892,959.557434 830.845337,971.311462 
	C831.743835,974.250183 832.124268,977.347290 832.813354,980.716553 
	C697.875000,980.716553 563.277588,980.716553 428.330963,980.716553 
	C428.330963,971.242249 428.330963,961.679993 428.330963,951.541687 
	C483.023926,951.541687 537.749268,951.541687 593.654541,951.541687 
	C588.867737,944.240906 584.758850,937.820679 580.497314,931.503357 
	C568.047852,913.048340 555.586060,894.601257 543.035217,876.215088 
	C533.614624,862.414795 524.107666,848.672607 514.517883,834.989441 
	C510.881714,829.801147 504.908264,829.839172 499.473480,829.257935 
	C490.590637,828.307739 481.660431,827.800415 472.732849,827.104919 
	C469.008514,819.689819 473.931183,813.477417 476.275513,807.317688 
	C482.114532,791.975586 488.978516,777.023376 495.443054,761.919739 
	C500.572998,749.934448 505.741425,737.965393 510.822540,725.959473 
	C511.242249,724.967834 511.124237,723.748596 511.375183,721.628784 
	C500.216614,729.043762 489.634857,735.724304 479.429474,742.937439 
	C463.125763,754.460815 446.973328,766.205017 430.941864,778.105042 
	C416.236389,789.020569 401.775635,800.265991 387.206299,811.365112 
	C375.746246,820.095459 364.160339,828.666687 352.861053,837.600403 
	C342.439728,845.840027 332.376251,854.530640 322.058411,862.903442 
	C315.073975,868.571106 307.902435,874.007629 300.850677,879.593201 
	C294.170746,884.884216 287.572662,890.278931 280.873810,895.545654 
	C274.954559,900.199524 268.925049,904.712891 262.983856,909.339111 
	C258.586487,912.763184 254.265244,916.284729 249.888199,919.735168 
	C240.375275,927.234192 230.832275,934.695129 221.332718,942.211060 
	C214.656876,947.492920 207.955551,952.747131 201.409729,958.187073 
	C196.364166,962.380188 191.697342,967.040039 186.541428,971.083496 
	C184.616302,972.593201 181.836960,973.176331 179.348251,973.760986 
	C176.614807,974.403137 173.777603,974.727417 170.967804,974.899597 
	C157.102966,975.749329 143.232254,976.502808 128.361420,977.347107 
	C138.483322,962.874573 148.102432,949.346375 157.474503,935.649231 
	C164.973068,924.690186 172.183334,913.533691 179.500198,902.450684 
	C192.048004,883.444458 204.661789,864.480957 217.086227,845.394348 
	C224.515549,833.981262 231.343094,822.168030 238.992920,810.909546 
	C244.869492,802.260742 251.515350,794.124695 257.993073,785.897644 
	C262.941742,779.612549 268.162720,773.541809 273.262604,767.375671 
	C273.077362,766.876465 272.892120,766.377258 272.706909,765.877991 
	C269.197876,766.826050 265.330505,767.127258 262.243561,768.837341 
	C250.600327,775.287292 239.295746,782.345581 227.705658,788.895325 
	C212.150635,797.685547 196.493912,806.299866 180.764297,814.773254 
	C178.151062,816.181091 174.944244,816.486877 171.007767,817.580933 
	C173.415268,808.336609 173.296753,799.227844 179.040298,791.717773 
	C186.198181,782.358337 193.118912,772.813293 200.432861,763.578735 
	C206.330841,756.131897 212.798172,749.138000 218.761871,741.740723 
	C225.441666,733.455261 231.817749,724.925476 238.367081,716.534058 
	C242.094452,711.758301 245.957031,707.087769 249.665634,702.297852 
	C257.994202,691.540771 266.279327,680.749939 274.552979,669.950500 
	C279.120667,663.988403 283.662476,658.005920 288.156403,651.988098 
	C293.840363,644.376770 299.489166,636.738770 305.107147,629.078552 
	C313.524628,617.601318 321.900635,606.093689 330.297180,594.601135 
	C336.189545,586.536133 342.043457,578.442566 347.994476,570.421082 
	C353.450653,563.066467 359.072601,555.834595 364.513153,548.468689 
	C369.662262,541.497253 374.613190,534.379639 379.755768,527.403320 
	C385.776764,519.235413 391.923523,511.160400 397.992004,503.027374 
	C403.964508,495.022858 409.893036,486.985535 415.867340,478.982330 
	C421.637268,471.252930 427.328094,463.460724 433.256866,455.854492 
	C441.617981,445.127747 450.146240,434.530823 458.641998,423.909576 
	C463.651581,417.646698 468.848755,411.531097 473.760376,405.193359 
	C480.674194,396.272034 487.359589,387.174042 494.219238,378.210236 
	C502.282104,367.674164 510.437927,357.209290 518.532166,346.697113 
	C523.431152,340.334808 528.259033,333.917603 533.177917,327.570892 
	C536.185913,323.689728 539.262085,319.859253 542.384277,316.069153 
	C550.408691,306.328217 558.847168,296.901398 566.417358,286.821289 
	C573.458435,277.445618 580.375793,267.552338 582.464172,255.797775 
	C584.593933,243.809830 585.391846,231.709000 583.020569,219.331223 
	C581.005310,208.811874 579.109375,198.390869 574.056396,188.949753 
	C572.446777,185.942261 569.267700,182.678864 566.150146,181.759933 
	C550.927124,177.272766 535.531250,173.335419 520.101196,169.597015 
	C505.242218,165.996979 490.315796,162.633682 475.327637,159.620804 
	C462.064484,156.954681 448.670563,154.942291 435.347504,152.567551 
	C433.254120,152.194427 430.833984,151.928223 429.291290,150.700134 
	C427.881409,149.577789 425.667999,147.863724 427.751923,145.082047 
	C431.943573,139.486893 435.607788,133.481964 439.982544,128.042572 
	C444.708496,122.166580 449.592468,116.303802 455.121490,111.210304 
	C468.353271,99.020859 483.591125,90.867241 502.118896,90.549500 
	C521.612549,90.215187 541.121155,90.307022 560.594177,89.507446 
	C565.883362,89.290276 571.067932,86.526535 576.598511,84.696518 
M486.781799,125.238586 
	C483.613770,127.121567 480.445740,129.004547 477.277710,130.887512 
	C477.334656,131.399765 477.391602,131.912003 477.448578,132.424240 
	C482.994537,133.489334 488.525116,134.644379 494.090179,135.597900 
	C501.921417,136.939667 509.845306,137.815948 517.608215,139.463196 
	C528.860046,141.850830 539.977356,144.864990 551.200378,147.397797 
	C562.436646,149.933609 573.798706,151.936584 584.977722,154.692078 
	C592.084229,156.443741 597.295532,160.309479 600.210205,167.958252 
	C604.436096,179.047745 608.993713,190.013382 610.053162,201.865479 
	C611.273499,215.517456 612.156433,229.253281 612.100769,242.948303 
	C612.057800,253.523224 610.341125,264.091370 609.387451,274.457489 
	C617.043274,275.137054 625.453735,276.044403 633.887390,276.599182 
	C652.273193,277.808624 670.718018,278.359009 689.041443,280.165192 
	C696.968689,280.946594 705.131287,283.160400 712.322205,286.555267 
	C720.054749,290.205933 726.747986,296.042419 733.940674,300.856476 
	C741.605835,305.986755 747.366699,312.809540 752.094299,320.643768 
	C761.982483,337.029663 765.556213,354.956146 764.531921,373.792328 
	C763.968811,384.148102 763.817566,394.916046 760.776001,404.653381 
	C756.512634,418.302368 750.386719,431.500854 743.845886,444.271515 
	C736.825073,457.979309 727.847900,470.679749 720.720154,484.339325 
	C710.133545,504.627594 700.370056,525.347168 690.353455,545.930481 
	C680.295654,566.598572 670.629028,587.423401 663.835388,609.477966 
	C662.720886,613.095947 660.557678,617.049072 657.675842,619.321045 
	C652.449463,623.441406 646.126648,626.134338 640.601562,629.919617 
	C626.550781,639.546143 612.631348,649.367737 598.775452,659.273743 
	C592.526550,663.741211 586.723694,668.839478 580.418396,673.219543 
	C570.060364,680.414795 559.444702,687.238525 548.983337,694.286804 
	C548.136963,694.857117 547.363708,695.852417 547.026917,696.814880 
	C542.462097,709.858887 538.029114,722.948975 533.466431,735.993713 
	C527.504211,753.039856 521.399597,770.036499 515.478027,787.096741 
	C513.668030,792.311340 512.258850,797.665039 510.433319,803.728394 
	C515.577332,803.728394 519.437927,803.299438 523.162720,803.827820 
	C528.908508,804.642761 532.599426,802.038025 536.550476,798.296204 
	C543.924011,791.312988 551.592041,784.557007 559.699585,778.452881 
	C570.528748,770.299805 581.918030,762.893127 593.021484,755.101440 
	C606.130554,745.902283 619.179260,736.617126 632.278564,727.404053 
	C638.167847,723.262024 644.259766,719.394531 650.004944,715.064453 
	C658.768433,708.459534 667.162476,701.360596 675.984436,694.838074 
	C687.055359,686.652649 698.378235,678.806519 709.632080,670.870361 
	C725.823914,659.451965 742.166321,648.243164 758.219360,636.633728 
	C767.384338,630.005615 776.360291,623.061829 784.961792,615.721680 
	C798.017090,604.580872 805.416199,589.221436 813.299744,574.534790 
	C821.585815,559.098206 828.755005,543.008667 835.562195,526.846497 
	C842.664185,509.984497 849.349487,492.892853 855.085693,475.527893 
	C859.306030,462.751862 861.848267,449.406738 864.840515,436.247467 
	C865.931274,431.450684 865.764648,426.367554 866.860657,421.572571 
	C869.851013,408.490112 868.711609,395.668304 864.535400,383.152802 
	C860.460999,370.942230 855.710999,358.957886 851.304321,346.857208 
	C845.278015,330.309082 839.343201,313.727478 833.270752,297.196381 
	C830.920532,290.798126 828.104980,284.567535 825.851013,278.138000 
	C822.554932,268.735596 819.681274,259.185669 816.429626,249.766983 
	C812.853394,239.408112 808.968384,229.156036 805.369690,218.804672 
	C799.931519,203.162231 794.726868,187.438263 789.234558,171.815170 
	C783.390991,155.192780 777.446899,138.603424 771.322144,122.082878 
	C766.560547,109.238960 761.961487,96.015526 750.757751,87.197990 
	C745.570251,83.115303 739.118896,78.828629 732.891235,78.222366 
	C715.366028,76.516335 697.660278,76.247131 680.024414,76.218933 
	C664.056519,76.193413 648.083069,77.722504 632.119812,77.594673 
	C624.071716,77.530228 618.180969,80.749641 613.010620,85.910751 
	C605.934998,92.973686 600.126648,101.066422 596.136780,110.298798 
	C594.547852,113.975258 592.416199,115.934486 588.100342,116.122231 
	C559.656616,117.359459 531.229126,118.986870 502.781342,120.105881 
	C497.037720,120.331810 491.741699,120.679108 486.781799,125.238586 
M631.500183,305.638916 
	C619.002808,305.639679 606.503540,305.532471 594.009949,305.749725 
	C591.976746,305.785095 589.203003,306.674774 588.075500,308.159668 
	C581.730591,316.515411 575.845215,325.217896 569.684753,333.716370 
	C564.025513,341.523285 558.290405,349.277740 552.455933,356.954407 
	C544.336609,367.637482 536.101929,378.233032 527.900879,388.853912 
	C520.501404,398.436829 513.064636,407.990936 505.675354,417.581665 
	C500.779602,423.935974 495.964905,430.352722 491.065186,436.703949 
	C486.577545,442.521027 482.031525,448.293152 477.498810,454.075409 
	C471.836578,461.298492 466.085236,468.453247 460.511078,475.743561 
	C453.061951,485.486115 445.903595,495.454437 438.323212,505.092102 
	C432.237213,512.829834 425.447876,520.018188 419.435913,527.809387 
	C409.439697,540.763916 399.970001,554.124268 389.994141,567.095032 
	C379.411194,580.855164 368.412415,594.294678 357.750244,607.994934 
	C346.598572,622.324158 335.558594,636.741882 324.610901,651.227539 
	C318.087402,659.859253 311.850616,668.707336 305.457031,677.437683 
	C299.467072,685.616882 293.527924,693.835571 287.405823,701.915161 
	C280.983368,710.391113 274.275452,718.651306 267.886108,727.151550 
	C265.296661,730.596497 263.219574,734.426575 260.909363,738.081421 
	C261.247131,738.524231 261.584900,738.967102 261.922668,739.409912 
	C263.757538,738.709045 265.839020,738.349670 267.377808,737.238647 
	C270.954620,734.656311 274.146210,731.541687 277.714722,728.946350 
	C287.256927,722.006348 296.890320,715.190735 306.533173,708.390442 
	C322.972534,696.797058 339.431793,685.231812 355.912140,673.696777 
	C365.833344,666.752625 375.821442,659.904175 385.758514,652.982605 
	C394.513428,646.884460 403.141052,640.598083 412.003876,634.662109 
	C422.059113,627.927429 432.435394,621.670166 442.453278,614.882324 
	C458.327606,604.126343 473.968475,593.026062 489.813660,582.226379 
	C496.585388,577.610962 503.784393,573.617371 510.505981,568.934631 
	C524.892029,558.912354 539.008301,548.502869 553.397644,538.485413 
	C564.940430,530.449707 576.728943,522.767151 588.397400,514.911621 
	C604.556274,504.033081 620.742615,493.194763 636.845581,482.233948 
	C649.185303,473.834625 661.471130,465.353455 673.675964,456.759491 
	C685.324463,448.557190 697.216858,440.629974 708.262207,431.669769 
	C714.537903,426.578766 719.786316,419.994080 724.609680,413.429749 
	C727.290527,409.781189 728.468384,404.884521 729.756042,400.387817 
	C731.977844,392.629089 734.717834,384.840729 735.521484,376.891052 
	C737.178955,360.494110 732.421204,345.353790 722.997803,331.962463 
	C716.240662,322.360046 707.382324,314.113586 696.054382,311.180237 
	C683.560852,307.945038 670.413940,306.979309 657.481384,305.785583 
	C649.220154,305.023071 640.831665,305.640076 631.500183,305.638916 
M342.223297,809.786682 
	C348.083496,805.304016 353.948914,800.828186 359.802490,796.336914 
	C366.941101,790.859558 373.982330,785.250305 381.232300,779.924866 
	C386.364777,776.154846 391.915802,772.952393 397.026245,769.155090 
	C404.897339,763.306335 412.550690,757.164490 420.296906,751.147705 
	C432.844086,741.401978 445.344269,731.594910 457.956635,721.934387 
	C465.626099,716.059937 473.371674,710.274231 481.258636,704.696899 
	C491.010071,697.801086 500.974518,691.207275 510.790771,684.401978 
	C523.033325,675.914429 535.141602,667.231262 547.449951,658.841125 
	C560.073181,650.236389 572.976868,642.041565 585.560303,633.380371 
	C601.838318,622.176270 617.968018,610.754028 634.036865,599.251465 
	C636.483948,597.499756 639.081299,595.157043 640.209534,592.494568 
	C647.170349,576.067444 653.443848,559.346191 660.537659,542.979187 
	C664.382935,534.107422 669.366333,525.725769 673.897644,517.155457 
	C677.124207,511.052948 680.498779,505.028656 683.722168,498.924530 
	C686.439636,493.778473 689.034485,488.567657 691.683594,483.385498 
	C691.399414,482.896790 691.115295,482.408081 690.831116,481.919373 
	C688.284729,482.838104 685.414612,483.280304 683.245300,484.754059 
	C670.666321,493.299866 658.291809,502.145813 645.767273,510.772766 
	C638.752930,515.604248 631.521362,520.119873 624.494690,524.934021 
	C608.560486,535.850891 592.693787,546.866211 576.797119,557.838013 
	C568.705444,563.422852 560.503906,568.855591 552.538757,574.615295 
	C541.117310,582.874390 529.966003,591.508301 518.513733,599.723328 
	C508.124725,607.175598 497.503082,614.304565 486.955933,621.535156 
	C468.602631,634.117249 450.228577,646.669006 431.861694,659.231201 
	C414.255920,671.272888 396.681000,683.360046 379.029175,695.333862 
	C367.899597,702.883484 356.617157,710.207581 345.474030,717.737549 
	C338.966553,722.135010 332.431488,726.521545 326.209686,731.304382 
	C318.314056,737.373779 316.061890,747.283508 310.807770,755.179138 
	C304.997467,763.910522 299.934387,773.138672 294.136719,781.879089 
	C288.426788,790.487244 281.904449,798.560120 276.268219,807.212830 
	C263.915222,826.177063 251.834900,845.320251 239.768677,864.469421 
	C233.654633,874.172485 227.998138,884.166809 221.773514,893.795898 
	C218.438629,898.954651 214.337967,903.618469 210.127594,909.098145 
	C211.988861,908.920471 213.346939,909.190491 214.164734,908.647278 
	C219.079773,905.382080 223.952591,902.039795 228.679611,898.509155 
	C233.133469,895.182739 237.356064,891.548462 241.741714,888.128296 
	C247.681549,883.495911 253.724365,878.994995 259.642700,874.335754 
	C268.654297,867.241272 277.544708,859.992432 286.582031,852.931213 
	C298.180054,843.869263 309.888336,834.948425 321.518494,825.927429 
	C328.243835,820.710693 334.909119,815.416565 342.223297,809.786682 
M673.503235,903.899841 
	C672.027222,901.549988 670.610413,899.160400 669.064453,896.857483 
	C663.765747,888.964233 658.540100,881.017822 653.061157,873.250793 
	C647.786865,865.773743 642.004272,858.649475 636.862671,851.086243 
	C631.061218,842.552246 625.394958,833.889343 620.302002,824.923340 
	C616.810425,818.776367 614.078979,812.135498 611.597534,805.494995 
	C609.310730,799.375305 607.810913,792.961487 605.900024,786.458069 
	C596.408691,786.925720 590.171326,793.191589 583.294250,797.460022 
	C574.024719,803.213440 565.759583,810.564880 556.904419,817.012268 
	C548.795715,822.916138 547.925537,825.409729 551.982117,831.717224 
	C563.591675,849.768433 575.152344,867.851868 586.593323,886.010132 
	C592.370544,895.179382 597.795105,904.569885 603.473572,913.802307 
	C610.166199,924.683777 617.087219,935.427246 623.619995,946.402710 
	C625.193237,949.045959 626.743591,950.023926 629.794128,950.006531 
	C653.618713,949.871277 677.444336,949.926514 701.269653,949.897339 
	C702.487793,949.895813 703.705688,949.660217 705.439941,949.479980 
	C704.622375,947.972839 704.176819,946.943420 703.553772,946.035828 
	C698.645630,938.886414 693.757629,931.722107 688.756348,924.638062 
	C683.938599,917.814209 678.992920,911.080566 673.503235,903.899841 
z"/>
<path fill="#010101" opacity="1.000000" stroke="none" 
	d="
M487.061646,124.991272 
	C491.741699,120.679108 497.037720,120.331810 502.781342,120.105881 
	C531.229126,118.986870 559.656616,117.359459 588.100342,116.122231 
	C592.416199,115.934486 594.547852,113.975258 596.136780,110.298798 
	C600.126648,101.066422 605.934998,92.973686 613.010620,85.910751 
	C618.180969,80.749641 624.071716,77.530228 632.119812,77.594673 
	C648.083069,77.722504 664.056519,76.193413 680.024414,76.218933 
	C697.660278,76.247131 715.366028,76.516335 732.891235,78.222366 
	C739.118896,78.828629 745.570251,83.115303 750.757751,87.197990 
	C761.961487,96.015526 766.560547,109.238960 771.322144,122.082878 
	C777.446899,138.603424 783.390991,155.192780 789.234558,171.815170 
	C794.726868,187.438263 799.931519,203.162231 805.369690,218.804672 
	C808.968384,229.156036 812.853394,239.408112 816.429626,249.766983 
	C819.681274,259.185669 822.554932,268.735596 825.851013,278.138000 
	C828.104980,284.567535 830.920532,290.798126 833.270752,297.196381 
	C839.343201,313.727478 845.278015,330.309082 851.304321,346.857208 
	C855.710999,358.957886 860.460999,370.942230 864.535400,383.152802 
	C868.711609,395.668304 869.851013,408.490112 866.860657,421.572571 
	C865.764648,426.367554 865.931274,431.450684 864.840515,436.247467 
	C861.848267,449.406738 859.306030,462.751862 855.085693,475.527893 
	C849.349487,492.892853 842.664185,509.984497 835.562195,526.846497 
	C828.755005,543.008667 821.585815,559.098206 813.299744,574.534790 
	C805.416199,589.221436 798.017090,604.580872 784.961792,615.721680 
	C776.360291,623.061829 767.384338,630.005615 758.219360,636.633728 
	C742.166321,648.243164 725.823914,659.451965 709.632080,670.870361 
	C698.378235,678.806519 687.055359,686.652649 675.984436,694.838074 
	C667.162476,701.360596 658.768433,708.459534 650.004944,715.064453 
	C644.259766,719.394531 638.167847,723.262024 632.278564,727.404053 
	C619.179260,736.617126 606.130554,745.902283 593.021484,755.101440 
	C581.918030,762.893127 570.528748,770.299805 559.699585,778.452881 
	C551.592041,784.557007 543.924011,791.312988 536.550476,798.296204 
	C532.599426,802.038025 528.908508,804.642761 523.162720,803.827820 
	C519.437927,803.299438 515.577332,803.728394 510.433319,803.728394 
	C512.258850,797.665039 513.668030,792.311340 515.478027,787.096741 
	C521.399597,770.036499 527.504211,753.039856 533.466431,735.993713 
	C538.029114,722.948975 542.462097,709.858887 547.026917,696.814880 
	C547.363708,695.852417 548.136963,694.857117 548.983337,694.286804 
	C559.444702,687.238525 570.060364,680.414795 580.418396,673.219543 
	C586.723694,668.839478 592.526550,663.741211 598.775452,659.273743 
	C612.631348,649.367737 626.550781,639.546143 640.601562,629.919617 
	C646.126648,626.134338 652.449463,623.441406 657.675842,619.321045 
	C660.557678,617.049072 662.720886,613.095947 663.835388,609.477966 
	C670.629028,587.423401 680.295654,566.598572 690.353455,545.930481 
	C700.370056,525.347168 710.133545,504.627594 720.720154,484.339325 
	C727.847900,470.679749 736.825073,457.979309 743.845886,444.271515 
	C750.386719,431.500854 756.512634,418.302368 760.776001,404.653381 
	C763.817566,394.916046 763.968811,384.148102 764.531921,373.792328 
	C765.556213,354.956146 761.982483,337.029663 752.094299,320.643768 
	C747.366699,312.809540 741.605835,305.986755 733.940674,300.856476 
	C726.747986,296.042419 720.054749,290.205933 712.322205,286.555267 
	C705.131287,283.160400 696.968689,280.946594 689.041443,280.165192 
	C670.718018,278.359009 652.273193,277.808624 633.887390,276.599182 
	C625.453735,276.044403 617.043274,275.137054 609.387451,274.457489 
	C610.341125,264.091370 612.057800,253.523224 612.100769,242.948303 
	C612.156433,229.253281 611.273499,215.517456 610.053162,201.865479 
	C608.993713,190.013382 604.436096,179.047745 600.210205,167.958252 
	C597.295532,160.309479 592.084229,156.443741 584.977722,154.692078 
	C573.798706,151.936584 562.436646,149.933609 551.200378,147.397797 
	C539.977356,144.864990 528.860046,141.850830 517.608215,139.463196 
	C509.845306,137.815948 501.921417,136.939667 494.090179,135.597900 
	C488.525116,134.644379 482.994537,133.489334 477.448578,132.424240 
	C477.391602,131.912003 477.334656,131.399765 477.277710,130.887512 
	C480.445740,129.004547 483.613770,127.121567 487.061646,124.991272 
z"/>
<path fill="#010101" opacity="1.000000" stroke="none" 
	d="
M632.000244,305.638733 
	C640.831665,305.640076 649.220154,305.023071 657.481384,305.785583 
	C670.413940,306.979309 683.560852,307.945038 696.054382,311.180237 
	C707.382324,314.113586 716.240662,322.360046 722.997803,331.962463 
	C732.421204,345.353790 737.178955,360.494110 735.521484,376.891052 
	C734.717834,384.840729 731.977844,392.629089 729.756042,400.387817 
	C728.468384,404.884521 727.290527,409.781189 724.609680,413.429749 
	C719.786316,419.994080 714.537903,426.578766 708.262207,431.669769 
	C697.216858,440.629974 685.324463,448.557190 673.675964,456.759491 
	C661.471130,465.353455 649.185303,473.834625 636.845581,482.233948 
	C620.742615,493.194763 604.556274,504.033081 588.397400,514.911621 
	C576.728943,522.767151 564.940430,530.449707 553.397644,538.485413 
	C539.008301,548.502869 524.892029,558.912354 510.505981,568.934631 
	C503.784393,573.617371 496.585388,577.610962 489.813660,582.226379 
	C473.968475,593.026062 458.327606,604.126343 442.453278,614.882324 
	C432.435394,621.670166 422.059113,627.927429 412.003876,634.662109 
	C403.141052,640.598083 394.513428,646.884460 385.758514,652.982605 
	C375.821442,659.904175 365.833344,666.752625 355.912140,673.696777 
	C339.431793,685.231812 322.972534,696.797058 306.533173,708.390442 
	C296.890320,715.190735 287.256927,722.006348 277.714722,728.946350 
	C274.146210,731.541687 270.954620,734.656311 267.377808,737.238647 
	C265.839020,738.349670 263.757538,738.709045 261.922668,739.409912 
	C261.584900,738.967102 261.247131,738.524231 260.909363,738.081421 
	C263.219574,734.426575 265.296661,730.596497 267.886108,727.151550 
	C274.275452,718.651306 280.983368,710.391113 287.405823,701.915161 
	C293.527924,693.835571 299.467072,685.616882 305.457031,677.437683 
	C311.850616,668.707336 318.087402,659.859253 324.610901,651.227539 
	C335.558594,636.741882 346.598572,622.324158 357.750244,607.994934 
	C368.412415,594.294678 379.411194,580.855164 389.994141,567.095032 
	C399.970001,554.124268 409.439697,540.763916 419.435913,527.809387 
	C425.447876,520.018188 432.237213,512.829834 438.323212,505.092102 
	C445.903595,495.454437 453.061951,485.486115 460.511078,475.743561 
	C466.085236,468.453247 471.836578,461.298492 477.498810,454.075409 
	C482.031525,448.293152 486.577545,442.521027 491.065186,436.703949 
	C495.964905,430.352722 500.779602,423.935974 505.675354,417.581665 
	C513.064636,407.990936 520.501404,398.436829 527.900879,388.853912 
	C536.101929,378.233032 544.336609,367.637482 552.455933,356.954407 
	C558.290405,349.277740 564.025513,341.523285 569.684753,333.716370 
	C575.845215,325.217896 581.730591,316.515411 588.075500,308.159668 
	C589.203003,306.674774 591.976746,305.785095 594.009949,305.749725 
	C606.503540,305.532471 619.002808,305.639679 632.000244,305.638733 
z"/>
<path fill="#020202" opacity="1.000000" stroke="none" 
	d="
M341.912354,809.972046 
	C334.909119,815.416565 328.243835,820.710693 321.518494,825.927429 
	C309.888336,834.948425 298.180054,843.869263 286.582031,852.931213 
	C277.544708,859.992432 268.654297,867.241272 259.642700,874.335754 
	C253.724365,878.994995 247.681549,883.495911 241.741714,888.128296 
	C237.356064,891.548462 233.133469,895.182739 228.679611,898.509155 
	C223.952591,902.039795 219.079773,905.382080 214.164734,908.647278 
	C213.346939,909.190491 211.988861,908.920471 210.127594,909.098145 
	C214.337967,903.618469 218.438629,898.954651 221.773514,893.795898 
	C227.998138,884.166809 233.654633,874.172485 239.768677,864.469421 
	C251.834900,845.320251 263.915222,826.177063 276.268219,807.212830 
	C281.904449,798.560120 288.426788,790.487244 294.136719,781.879089 
	C299.934387,773.138672 304.997467,763.910522 310.807770,755.179138 
	C316.061890,747.283508 318.314056,737.373779 326.209686,731.304382 
	C332.431488,726.521545 338.966553,722.135010 345.474030,717.737549 
	C356.617157,710.207581 367.899597,702.883484 379.029175,695.333862 
	C396.681000,683.360046 414.255920,671.272888 431.861694,659.231201 
	C450.228577,646.669006 468.602631,634.117249 486.955933,621.535156 
	C497.503082,614.304565 508.124725,607.175598 518.513733,599.723328 
	C529.966003,591.508301 541.117310,582.874390 552.538757,574.615295 
	C560.503906,568.855591 568.705444,563.422852 576.797119,557.838013 
	C592.693787,546.866211 608.560486,535.850891 624.494690,524.934021 
	C631.521362,520.119873 638.752930,515.604248 645.767273,510.772766 
	C658.291809,502.145813 670.666321,493.299866 683.245300,484.754059 
	C685.414612,483.280304 688.284729,482.838104 690.831116,481.919373 
	C691.115295,482.408081 691.399414,482.896790 691.683594,483.385498 
	C689.034485,488.567657 686.439636,493.778473 683.722168,498.924530 
	C680.498779,505.028656 677.124207,511.052948 673.897644,517.155457 
	C669.366333,525.725769 664.382935,534.107422 660.537659,542.979187 
	C653.443848,559.346191 647.170349,576.067444 640.209534,592.494568 
	C639.081299,595.157043 636.483948,597.499756 634.036865,599.251465 
	C617.968018,610.754028 601.838318,622.176270 585.560303,633.380371 
	C572.976868,642.041565 560.073181,650.236389 547.449951,658.841125 
	C535.141602,667.231262 523.033325,675.914429 510.790771,684.401978 
	C500.974518,691.207275 491.010071,697.801086 481.258636,704.696899 
	C473.371674,710.274231 465.626099,716.059937 457.956635,721.934387 
	C445.344269,731.594910 432.844086,741.401978 420.296906,751.147705 
	C412.550690,757.164490 404.897339,763.306335 397.026245,769.155090 
	C391.915802,772.952393 386.364777,776.154846 381.232300,779.924866 
	C373.982330,785.250305 366.941101,790.859558 359.802490,796.336914 
	C353.948914,800.828186 348.083496,805.304016 341.912354,809.972046 
z"/>
<path fill="#030303" opacity="1.000000" stroke="none" 
	d="
M673.803345,904.103638 
	C678.992920,911.080566 683.938599,917.814209 688.756348,924.638062 
	C693.757629,931.722107 698.645630,938.886414 703.553772,946.035828 
	C704.176819,946.943420 704.622375,947.972839 705.439941,949.479980 
	C703.705688,949.660217 702.487793,949.895813 701.269653,949.897339 
	C677.444336,949.926514 653.618713,949.871277 629.794128,950.006531 
	C626.743591,950.023926 625.193237,949.045959 623.619995,946.402710 
	C617.087219,935.427246 610.166199,924.683777 603.473572,913.802307 
	C597.795105,904.569885 592.370544,895.179382 586.593323,886.010132 
	C575.152344,867.851868 563.591675,849.768433 551.982117,831.717224 
	C547.925537,825.409729 548.795715,822.916138 556.904419,817.012268 
	C565.759583,810.564880 574.024719,803.213440 583.294250,797.460022 
	C590.171326,793.191589 596.408691,786.925720 605.900024,786.458069 
	C607.810913,792.961487 609.310730,799.375305 611.597534,805.494995 
	C614.078979,812.135498 616.810425,818.776367 620.302002,824.923340 
	C625.394958,833.889343 631.061218,842.552246 636.862671,851.086243 
	C642.004272,858.649475 647.786865,865.773743 653.061157,873.250793 
	C658.540100,881.017822 663.765747,888.964233 669.064453,896.857483 
	C670.610413,899.160400 672.027222,901.549988 673.803345,904.103638 
z"/>
</svg>